<svg width="70" height="70" viewBox="0 0 70 70" fill="none" xmlns="http://www.w3.org/2000/svg">
<path d="M65.3045 18.2878C62.1748 12.9253 57.9294 8.67984 52.5674 5.55038C47.2046 2.42076 41.35 0.856354 34.9994 0.856354C28.6497 0.856354 22.7932 2.42124 17.4315 5.55038C12.069 8.67968 7.8238 12.9253 4.69403 18.2878C1.56473 23.6502 0 29.5059 0 35.8548C0 43.4814 2.22507 50.3393 6.67631 56.4305C11.1271 62.5221 16.8768 66.7373 23.925 69.0765C24.7455 69.2287 25.3528 69.1216 25.7477 68.7579C26.1428 68.3936 26.34 67.9374 26.34 67.3912C26.34 67.3001 26.3322 66.4801 26.3171 64.9304C26.3014 63.3807 26.2941 62.0287 26.2941 60.8752L25.2459 61.0565C24.5776 61.1789 23.7345 61.2308 22.7166 61.2161C21.6992 61.2019 20.643 61.0953 19.5494 60.897C18.4554 60.7006 17.4379 60.2448 16.496 59.5309C15.5545 58.8169 14.8862 57.8823 14.4912 56.7286L14.0355 55.6799C13.7317 54.9818 13.2535 54.2062 12.6002 53.3561C11.9469 52.5052 11.2862 51.9283 10.6179 51.6246L10.2988 51.3961C10.0862 51.2443 9.88893 51.0613 9.70649 50.8488C9.5242 50.6364 9.38773 50.4238 9.29659 50.2108C9.20529 49.9977 9.28095 49.823 9.52436 49.6858C9.76778 49.5487 10.2077 49.4822 10.846 49.4822L11.7571 49.6183C12.3648 49.7401 13.1164 50.1039 14.013 50.7119C14.9091 51.3194 15.6457 52.1091 16.223 53.0809C16.9221 54.3269 17.7644 55.2763 18.7523 55.9296C19.7394 56.5829 20.7346 56.909 21.737 56.909C22.7394 56.909 23.6052 56.833 24.3346 56.6819C25.0633 56.5299 25.7469 56.3015 26.3852 55.9979C26.6586 53.9615 27.4031 52.3971 28.6179 51.3036C26.8864 51.1216 25.3297 50.8475 23.9469 50.4831C22.5649 50.1182 21.1368 49.5261 19.6636 48.705C18.1895 47.885 16.9667 46.8668 15.9948 45.6522C15.0227 44.4368 14.2249 42.8413 13.6026 40.867C12.9799 38.8919 12.6685 36.6135 12.6685 34.0312C12.6685 30.3544 13.8688 27.2256 16.269 24.643C15.1446 21.8787 15.2508 18.7799 16.5877 15.3469C17.4688 15.0731 18.7755 15.2786 20.507 15.9619C22.2388 16.6455 23.5068 17.2312 24.3123 17.7167C25.1177 18.2021 25.763 18.6135 26.2492 18.9471C29.0752 18.1574 31.9916 17.7625 34.9991 17.7625C38.0066 17.7625 40.9236 18.1574 43.7498 18.9471L45.4815 17.8538C46.6657 17.1244 48.0641 16.4559 49.6734 15.8482C51.2836 15.2409 52.5149 15.0736 53.366 15.3474C54.7326 18.7806 54.8544 21.8792 53.7297 24.6435C56.1297 27.2261 57.3305 30.3557 57.3305 34.0317C57.3305 36.614 57.018 38.8995 56.3963 40.8898C55.7738 42.8804 54.9692 44.4743 53.9821 45.675C52.9939 46.8755 51.7633 47.8857 50.29 48.7055C48.8164 49.5259 47.3878 50.1181 46.0059 50.483C44.6233 50.8479 43.0665 51.1221 41.335 51.3044C42.9142 52.671 43.704 54.8282 43.704 57.7751V67.3899C43.704 67.9362 43.894 68.3922 44.2742 68.7566C44.6539 69.1204 45.2536 69.2275 46.074 69.075C53.1232 66.7362 58.8729 62.5208 63.3235 56.4292C67.7737 50.338 69.9995 43.4801 69.9995 35.8536C69.9979 29.5054 68.4324 23.6502 65.3045 18.2878Z" fill="black"/>
</svg>
