<svg width="79" height="71" viewBox="0 0 79 71" fill="none" xmlns="http://www.w3.org/2000/svg">
<path d="M55.6667 36C55.6667 32.7795 54.5273 30.0299 52.2487 27.7513C49.9701 25.4727 47.2205 24.3333 44 24.3333C40.7795 24.3333 38.0299 25.4727 35.7513 27.7513C33.4727 30.0299 32.3333 32.7795 32.3333 36C32.3333 39.2205 33.4727 41.9701 35.7513 44.2487C38.0299 46.5273 40.7795 47.6667 44 47.6667C47.2205 47.6667 49.9701 46.5273 52.2487 44.2487C54.5273 41.9701 55.6667 39.2205 55.6667 36ZM61.9557 36C61.9557 40.9826 60.2088 45.2209 56.7148 48.7148C53.2209 52.2088 48.9826 53.9557 44 53.9557C39.0174 53.9557 34.7791 52.2088 31.2852 48.7148C27.7912 45.2209 26.0443 40.9826 26.0443 36C26.0443 31.0174 27.7912 26.7791 31.2852 23.2852C34.7791 19.7912 39.0174 18.0443 44 18.0443C48.9826 18.0443 53.2209 19.7912 56.7148 23.2852C60.2088 26.7791 61.9557 31.0174 61.9557 36ZM66.8776 17.3151C66.8776 18.4696 66.4674 19.457 65.6471 20.2773C64.8268 21.0977 63.8394 21.5078 62.6849 21.5078C61.5304 21.5078 60.543 21.0977 59.7227 20.2773C58.9023 19.457 58.4922 18.4696 58.4922 17.3151C58.4922 16.1606 58.9023 15.1732 59.7227 14.3529C60.543 13.5326 61.5304 13.1224 62.6849 13.1224C63.8394 13.1224 64.8268 13.5326 65.6471 14.3529C66.4674 15.1732 66.8776 16.1606 66.8776 17.3151ZM44 7.28906C43.7873 7.28906 42.6252 7.28147 40.5137 7.26628C38.4021 7.25109 36.7995 7.25109 35.7057 7.26628C34.612 7.28147 33.1461 7.32704 31.3079 7.40299C29.4698 7.47895 27.9052 7.63086 26.6139 7.85872C25.3227 8.08659 24.2365 8.36762 23.3555 8.70182C21.8364 9.30946 20.4996 10.1905 19.3451 11.3451C18.1905 12.4996 17.3095 13.8364 16.7018 15.3555C16.3676 16.2365 16.0866 17.3227 15.8587 18.6139C15.6309 19.9052 15.4789 21.4698 15.403 23.3079C15.327 25.1461 15.2815 26.612 15.2663 27.7057C15.2511 28.7995 15.2511 30.4021 15.2663 32.5137C15.2815 34.6252 15.2891 35.7873 15.2891 36C15.2891 36.2127 15.2815 37.3748 15.2663 39.4863C15.2511 41.5979 15.2511 43.2005 15.2663 44.2943C15.2815 45.388 15.327 46.854 15.403 48.6921C15.4789 50.5302 15.6309 52.0948 15.8587 53.3861C16.0866 54.6773 16.3676 55.7635 16.7018 56.6445C17.3095 58.1636 18.1905 59.5004 19.3451 60.6549C20.4996 61.8095 21.8364 62.6905 23.3555 63.2982C24.2365 63.6324 25.3227 63.9134 26.6139 64.1413C27.9052 64.3691 29.4698 64.5211 31.3079 64.597C33.1461 64.673 34.612 64.7185 35.7057 64.7337C36.7995 64.7489 38.4021 64.7489 40.5137 64.7337C42.6252 64.7185 43.7873 64.7109 44 64.7109C44.2127 64.7109 45.3748 64.7185 47.4863 64.7337C49.5979 64.7489 51.2005 64.7489 52.2943 64.7337C53.388 64.7185 54.854 64.673 56.6921 64.597C58.5302 64.5211 60.0948 64.3691 61.3861 64.1413C62.6773 63.9134 63.7635 63.6324 64.6445 63.2982C66.1636 62.6905 67.5004 61.8095 68.6549 60.6549C69.8095 59.5004 70.6905 58.1636 71.2982 56.6445C71.6324 55.7635 71.9134 54.6773 72.1413 53.3861C72.3691 52.0948 72.5211 50.5302 72.597 48.6921C72.673 46.854 72.7185 45.388 72.7337 44.2943C72.7489 43.2005 72.7489 41.5979 72.7337 39.4863C72.7185 37.3748 72.7109 36.2127 72.7109 36C72.7109 35.7873 72.7185 34.6252 72.7337 32.5137C72.7489 30.4021 72.7489 28.7995 72.7337 27.7057C72.7185 26.612 72.673 25.1461 72.597 23.3079C72.5211 21.4698 72.3691 19.9052 72.1413 18.6139C71.9134 17.3227 71.6324 16.2365 71.2982 15.3555C70.6905 13.8364 69.8095 12.4996 68.6549 11.3451C67.5004 10.1905 66.1636 9.30946 64.6445 8.70182C63.7635 8.36762 62.6773 8.08659 61.3861 7.85872C60.0948 7.63086 58.5302 7.47895 56.6921 7.40299C54.854 7.32704 53.388 7.28147 52.2943 7.26628C51.2005 7.25109 49.5979 7.25109 47.4863 7.26628C45.3748 7.28147 44.2127 7.28906 44 7.28906ZM79 36C79 42.9575 78.924 47.773 78.7721 50.4466C78.4683 56.7661 76.5846 61.6576 73.1211 65.1211C69.6576 68.5846 64.7661 70.4683 58.4466 70.7721C55.773 70.924 50.9575 71 44 71C37.0425 71 32.227 70.924 29.5534 70.7721C23.2339 70.4683 18.3424 68.5846 14.8789 65.1211C11.4154 61.6576 9.53168 56.7661 9.22786 50.4466C9.07595 47.773 9 42.9575 9 36C9 29.0425 9.07595 24.227 9.22786 21.5534C9.53168 15.2339 11.4154 10.3424 14.8789 6.87891C18.3424 3.41536 23.2339 1.53168 29.5534 1.22786C32.227 1.07595 37.0425 1 44 1C50.9575 1 55.773 1.07595 58.4466 1.22786C64.7661 1.53168 69.6576 3.41536 73.1211 6.87891C76.5846 10.3424 78.4683 15.2339 78.7721 21.5534C78.924 24.227 79 29.0425 79 36Z" fill="black"/>
</svg>
