<svg width="77" height="60" viewBox="0 0 77 60" fill="none" xmlns="http://www.w3.org/2000/svg">
<path fill-rule="evenodd" clip-rule="evenodd" d="M9.13092 12.2406C9.22717 11.3116 8.86462 10.3952 8.15879 9.77169L0.972125 1.26909V0H23.2957L40.5501 37.1438L55.7191 0H77V1.26909L70.8528 7.05401C70.3235 7.45079 70.0604 8.10266 70.1695 8.74823V51.2549C70.0604 51.8973 70.3235 52.5492 70.8528 52.946L76.8556 58.7309V60H46.6588V58.7309L52.8797 52.8043C53.4893 52.206 53.4893 52.0296 53.4893 51.1132V16.7564L36.1996 59.8614H33.864L13.7317 16.7564V45.6464C13.5648 46.8588 13.9755 48.0838 14.845 48.9592L22.9332 58.5892V59.8614H0V58.5892L8.08821 48.9592C8.95446 48.0806 9.33946 46.8493 9.13092 45.6464V12.2406Z" fill="black"/>
</svg>
