<svg width="80" height="80" viewBox="0 0 80 80" fill="none" xmlns="http://www.w3.org/2000/svg">
<path d="M61.87 43.86C58.1967 43.86 54.7533 42.3033 51.6233 39.77L52.3833 36.1833L52.41 36.0433C53.1 32.2333 55.24 25.8433 61.8733 25.8433C64.2624 25.8451 66.5531 26.7949 68.2424 28.4843C69.9317 30.1736 70.8816 32.4643 70.8833 34.8533C70.8789 37.2419 69.9277 39.5312 68.2381 41.2195C66.5485 42.9078 64.2585 43.8574 61.87 43.86ZM61.87 16.7267C53.4067 16.7267 46.8367 22.2233 44.17 31.28C40.1033 25.1667 37.01 17.8267 35.2133 11.64H26.0933V35.3467C26.0907 37.5979 25.1955 39.7561 23.604 41.3483C22.0124 42.9404 19.8545 43.8365 17.6033 43.84C15.353 43.8356 13.1963 42.939 11.6061 41.3469C10.0158 39.7548 9.12176 37.597 9.12 35.3467V11.64H0V35.3467C0 45.06 7.9 53.0233 17.6033 53.0233C27.3133 53.0233 35.2133 45.06 35.2133 35.3467V31.38C36.9767 35.07 39.1533 38.81 41.7933 42.1167L36.2167 68.36H45.54L49.5833 49.3267C53.1267 51.59 57.2 53.0233 61.87 53.0233C71.87 53.0233 80 44.85 80 34.8567C80 24.8567 71.87 16.7267 61.87 16.7267V16.7267Z" fill="black"/>
</svg>
